# xmcd
#
# Track frame offsets: 
#        150
#        17209
#        33215
#        56597
#        64470
#        72847
#        81909
#        95689
#        109037
#        120220
#        132041
#        150044
#        164603
#
# Disc length: 2798 seconds
#
# Revision: 0
# Processed by: cddbd v1.5.2PL0 Copyright (c) Steve Scherf et al.
# Submitted via: ExactAudioCopy v1.3
#
DISCID=a10aec0d
DTITLE=The Pathfinders - Tornado
DYEAR=2017
DGENRE=Blues
TTITLE0=I'm leaving
TTITLE1=Bury my love
TTITLE2=Tornado
TTITLE3=T-Boogie
TTITLE4=At top speed
TTITLE5=Dirty Rober
TTITLE6=Sur quel pied
TTITLE7=Bourbon moon
TTITLE8=My wolf
TTITLE9=Rock you're baby
TTITLE10=Voodo woman
TTITLE11=I feel something
TTITLE12=Rusty
EXTD=
EXTT0=
EXTT1=
EXTT2=
EXTT3=
EXTT4=
EXTT5=
EXTT6=
EXTT7=
EXTT8=
EXTT9=
EXTT10=
EXTT11=
EXTT12=
PLAYORDER=
